<?xml version="1.0" standalone="no"?>
<!DOCTYPE svg PUBLIC "-//W3C//DTD SVG 20010904//EN"
 "http://www.w3.org/TR/2001/REC-SVG-20010904/DTD/svg10.dtd">
<svg version="1.0" xmlns="http://www.w3.org/2000/svg"
 width="100.000000pt" height="46.000000pt" viewBox="0 0 340.000000 190.000000"
 preserveAspectRatio="xMidYMid meet">

<g transform="translate(0.000000,190.000000) scale(0.100000,-0.100000)"
fill="#35490b" stroke="none">
<path d="M466 1518 c-84 -23 -139 -116 -116 -197 22 -78 52 -99 190 -135 50
-13 100 -32 110 -41 55 -50 -9 -125 -105 -125 -42 0 -110 32 -127 60 -17 26
-28 25 -66 -7 l-32 -28 26 -33 c43 -54 111 -82 199 -82 101 0 165 33 201 102
21 40 18 124 -5 162 -27 43 -62 61 -170 86 -99 24 -131 44 -131 84 0 31 20 51
66 66 47 16 100 1 143 -39 l32 -30 35 31 35 31 -36 37 c-60 61 -153 83 -249
58z"/>
<path fill="#7a7b80" d="M1075 1511 c-18 -7 -18 -9 6 -33 14 -14 26 -32 26 -39 0 -8 13 -34
28 -59 16 -25 39 -66 52 -92 l23 -48 65 0 c36 0 65 2 65 4 0 2 -27 52 -60 111
-33 59 -60 110 -60 112 0 11 30 -20 30 -31 1 -6 25 -51 53 -101 l53 -90 47 -3
c52 -3 59 7 33 56 -7 15 -20 40 -27 57 -30 64 -143 154 -195 154 -10 0 -41 3
-69 5 -27 3 -59 2 -70 -3z"/>
<path d="M1540 1231 l0 -290 56 -7 c78 -9 297 4 306 19 4 7 8 26 8 44 l0 32
-132 3 -133 3 -3 243 -2 242 -50 0 -50 0 0 -289z"/>
<path d="M2184 1503 c-7 -7 -16 -23 -20 -36 -3 -12 -35 -96 -71 -187 -127
-326 -129 -330 -111 -342 10 -6 76 -3 85 5 1 1 12 31 26 67 l24 65 115 3 115
3 29 -68 c15 -37 28 -69 28 -69 4 -8 74 -11 85 -5 16 10 18 3 -88 281 -120
313 -107 288 -159 292 -28 2 -50 -2 -58 -9z m95 -234 c16 -41 27 -77 24 -81
-2 -5 -33 -8 -69 -8 -74 0 -76 3 -43 83 11 29 25 63 30 76 13 32 23 20 58 -70z"/>
<path d="M2588 1514 c-5 -4 -8 -135 -8 -290 l0 -284 24 -6 c13 -3 35 -4 47 -2
23 3 24 6 27 116 l3 112 53 0 53 0 71 -109 71 -108 48 -6 c26 -3 51 -2 55 2 5
4 -24 56 -63 115 -39 59 -69 109 -67 110 98 59 113 83 113 178 0 86 -15 117
-76 153 -28 16 -57 20 -189 23 -85 2 -158 1 -162 -4z m287 -98 c59 -25 74 -88
30 -131 -22 -23 -31 -25 -125 -25 l-100 0 0 79 0 80 38 4 c81 8 124 6 157 -7z"/>
<path fill="#7a7b80" d="M1010 1503 c-39 -14 -38 -23 4 -111 24 -48 48 -102 56 -119 12 -32
14 -33 71 -33 l60 0 -16 28 c-8 15 -31 56 -51 92 -20 36 -41 72 -48 80 -7 8
-17 27 -24 43 -11 27 -22 31 -52 20z"/>
<path fill="#7a7b80" d="M909 1430 c-35 -33 -27 -50 22 -50 41 0 51 16 26 42 -8 7 -16 18 -18
23 -2 6 -16 -1 -30 -15z"/>
<path fill="#7a7b80" d="M853 1358 c-13 -20 -33 -81 -33 -100 0 -15 9 -18 55 -18 59 0 64 6
40 48 -8 15 -19 39 -25 55 -10 29 -24 35 -37 15z"/>
<path fill="#7a7b80" d="M900 1364 c0 -3 6 -20 14 -37 7 -18 18 -44 24 -59 10 -25 17 -28 57
-28 25 0 45 2 45 5 0 13 -24 55 -32 55 -5 0 -8 6 -6 13 1 6 -2 22 -6 35 -6 18
-15 22 -52 22 -24 0 -44 -3 -44 -6z"/>
<path fill="#366da3" d="M822 1188 c3 -20 10 -23 51 -26 26 -2 47 1 47 7 0 5 3 16 6 25 5 13
-3 16 -51 16 -53 0 -56 -1 -53 -22z"/>
<path fill="#366da3" d="M938 1185 c-5 -24 -3 -25 42 -25 35 0 50 4 54 16 10 25 -2 34 -48 34
-39 0 -44 -3 -48 -25z"/>
<path fill="#366da3" d="M1082 1188 c-7 -7 -12 -20 -12 -30 0 -15 8 -18 48 -18 43 0 50 3 60
25 7 14 12 28 12 30 0 11 -97 4 -108 -7z"/>
<path fill="#366da3" d="M1202 1180 c-6 -11 -12 -22 -12 -25 0 -3 29 -5 63 -5 58 0 65 2 75
25 l12 25 -63 0 c-51 0 -64 -3 -75 -20z"/>
<path fill="#366da3" d="M1342 1175 l-12 -26 57 3 c51 3 58 6 61 26 3 20 -1 22 -46 22 -43 0
-50 -3 -60 -25z"/>
<path fill="#366da3" d="M830 1138 c0 -19 13 -36 30 -38 38 -6 50 1 50 25 0 23 -4 25 -40 25
-25 0 -40 -5 -40 -12z"/>
<path fill="#366da3" d="M930 1141 c0 -5 -3 -17 -6 -26 -6 -14 0 -16 37 -13 37 2 45 7 47 26
3 20 -1 22 -37 22 -23 0 -41 -4 -41 -9z"/>
<path fill="#366da3" d="M1314 1108 l-15 -28 55 0 c44 0 57 4 66 19 19 36 12 42 -41 39 -44
-3 -53 -7 -65 -30z"/>
<path fill="#366da3" d="M1050 1104 c-6 -14 -10 -27 -10 -30 0 -2 22 -4 48 -4 43 0 50 3 60
25 17 36 18 35 -38 35 -45 0 -52 -3 -60 -26z"/>
<path fill="#366da3" d="M1172 1105 c-7 -14 -12 -28 -12 -31 0 -12 116 10 128 24 21 27 14 32
-46 32 -53 0 -60 -2 -70 -25z"/>
<path fill="#366da3" d="M870 1060 c6 -11 15 -20 20 -20 6 0 10 9 10 20 0 13 -7 20 -20 20
-18 0 -19 -3 -10 -20z"/>
<path fill="#366da3" d="M920 1055 c0 -19 5 -25 23 -25 25 0 47 17 47 37 0 8 -13 13 -35 13
-31 0 -35 -3 -35 -25z"/>
<path fill="#366da3" d="M1021 1028 c-6 -17 -10 -32 -9 -33 2 -1 24 0 49 3 38 3 49 9 58 28
15 35 16 34 -38 34 -46 0 -50 -2 -60 -32z"/>
<path fill="#366da3" d="M1142 1035 c-7 -14 -12 -28 -12 -30 0 -3 26 -5 58 -5 53 0 60 2 70
25 7 14 12 28 12 30 0 3 -26 5 -58 5 -53 0 -60 -2 -70 -25z"/>
<path fill="#366da3" d="M1282 1035 c-7 -14 -12 -28 -12 -31 0 -11 86 9 103 24 28 24 20 32
-31 32 -43 0 -50 -3 -60 -25z"/>
<path fill="#366da3" d="M920 1010 c0 -12 35 -31 44 -23 15 15 4 33 -19 33 -14 0 -25 -4 -25
-10z"/>
<path fill="#366da3" d="M1033 983 c-42 -5 -42 -18 -1 -39 31 -16 32 -16 50 6 10 12 18 26 18
31 0 9 -7 9 -67 2z"/>
<path fill="#366da3" d="M1109 963 c-11 -31 3 -46 36 -38 11 2 32 5 46 5 18 0 29 8 37 25 7
14 12 28 12 30 0 3 -27 5 -60 5 -56 0 -61 -2 -71 -27z"/>
<path fill="#366da3" d="M1256 974 c-3 -9 -6 -20 -6 -24 0 -12 56 8 71 26 9 12 6 14 -24 14
-23 0 -37 -6 -41 -16z"/>
<path d="M409 737 c-56 -29 -93 -93 -86 -149 19 -149 203 -194 266 -65 32 65
29 74 -26 79 -56 5 -93 -1 -93 -13 0 -5 25 -9 55 -9 49 0 55 -2 55 -21 0 -30
-51 -76 -92 -84 -69 -13 -138 50 -138 125 0 106 131 168 200 95 13 -14 30 -25
37 -25 27 0 -25 57 -67 74 -52 21 -58 20 -111 -7z"/>
<path d="M690 601 c0 -89 4 -151 10 -151 5 0 10 28 12 63 l3 62 40 3 c49 3 51
1 104 -70 23 -32 46 -58 51 -58 15 0 13 6 -26 65 l-37 55 32 29 c25 23 31 37
31 68 0 63 -24 77 -131 81 l-89 4 0 -151z m186 105 c19 -27 18 -60 -5 -80 -15
-13 -34 -16 -87 -14 l-69 3 -1 50 c0 28 0 52 2 55 1 3 34 5 74 5 59 0 74 -3
86 -19z"/>
<path d="M1000 600 l0 -150 105 0 c63 0 105 4 105 10 0 6 -33 10 -77 11 -97 2
-103 2 -103 12 0 4 0 30 0 57 l0 50 80 0 c103 0 105 18 3 22 l-78 3 -3 53 -3
52 44 0 c66 0 137 12 131 21 -3 5 -50 9 -105 9 l-99 0 0 -150z"/>
<path d="M1298 722 c-2 -16 -4 -82 -4 -148 l1 -119 103 -3 c65 -2 102 1 102 8
0 6 -34 10 -88 10 -49 0 -91 2 -93 4 -2 2 -2 29 -1 60 l4 56 79 0 c46 0 79 4
79 10 0 6 -33 10 -80 10 l-80 0 0 58 0 58 35 -4 c47 -6 145 7 145 19 0 5 -44
9 -99 9 l-99 0 -4 -28z"/>
<path d="M1587 743 c-11 -11 -8 -293 3 -293 8 0 17 161 12 223 -3 34 16 16 83
-80 75 -107 104 -143 117 -143 4 0 8 68 8 151 0 97 -4 148 -10 144 -6 -4 -10
-55 -10 -121 0 -63 -3 -114 -7 -114 -5 0 -41 47 -82 105 -79 111 -104 139
-114 128z"/>
<path d="M1907 743 c-9 -8 -9 -256 -1 -277 5 -13 24 -16 105 -16 59 0 99 4 99
10 0 6 -32 11 -75 11 -41 1 -81 2 -87 3 -9 1 -14 22 -16 59 l-3 57 86 0 c50 0
85 4 85 10 0 5 -3 9 -7 9 -5 -1 -43 -1 -85 0 l-78 1 0 54 0 54 90 8 c50 3 90
10 90 15 0 10 -193 12 -203 2z"/>
<path d="M2200 598 c0 -83 2 -149 5 -146 3 3 9 32 13 64 l7 59 47 3 47 3 43
-65 c24 -36 46 -66 51 -66 14 0 6 24 -25 72 l-31 50 27 21 c19 16 29 35 33 64
5 35 2 45 -20 67 -24 24 -33 26 -112 26 l-85 0 0 -152z m174 119 c22 -9 29
-56 11 -83 -14 -22 -22 -24 -90 -24 l-75 0 0 53 c0 30 2 56 4 58 6 6 134 2
150 -4z"/>
<path d="M2559 727 c-121 -81 -68 -277 74 -277 72 0 137 58 137 121 0 24 -5
27 -44 33 -48 8 -99 -1 -90 -15 3 -5 27 -9 54 -9 27 0 52 -5 55 -10 17 -28
-66 -100 -115 -100 -29 0 -75 28 -96 58 -20 29 -20 101 0 141 33 63 132 75
181 21 25 -28 50 -27 35 1 -31 58 -131 77 -191 36z"/>
<path  d="M2810 741 c0 -7 23 -46 51 -88 56 -82 57 -86 58 -155 1 -27 6 -48 11
-48 6 0 10 27 10 61 0 57 3 66 57 145 31 46 54 87 51 90 -8 7 -38 -26 -79 -87
-19 -27 -37 -49 -40 -49 -3 0 -25 26 -47 58 -45 65 -72 92 -72 73z"/>
</g>
</svg>
