<?xml version="1.0" standalone="no"?>
<!DOCTYPE svg PUBLIC "-//W3C//DTD SVG 20010904//EN"
 "http://www.w3.org/TR/2001/REC-SVG-20010904/DTD/svg10.dtd">
<svg version="1.0" xmlns="http://www.w3.org/2000/svg"
 width="100.000000pt" height="28.000000pt" viewBox="0 0 276.000000 112.000000"
 preserveAspectRatio="xMidYMid meet">

<g transform="translate(0.000000,112.000000) scale(0.100000,-0.100000)"
fill="#35490b" stroke="none">
<path  d="M142 1079 c-69 -27 -104 -77 -104 -147 0 -95 41 -135 177 -171 113
-30 134 -40 141 -67 9 -35 -4 -63 -39 -85 -59 -36 -146 -20 -207 37 l-25 23
-33 -20 c-40 -26 -40 -43 0 -81 54 -51 100 -68 178 -68 140 0 220 65 220 179
0 58 -25 108 -67 132 -15 9 -71 26 -123 39 -105 25 -130 40 -130 81 0 35 20
55 70 70 33 10 47 9 83 -5 25 -9 53 -26 62 -36 23 -26 37 -25 63 3 28 30 28
38 -5 70 -69 65 -166 82 -261 46z"/>
<path fill="#3e3f44" d="M780 1081 l-35 -6 28 -28 c15 -15 27 -35 27 -43 0 -8 15 -39 34 -68
18 -29 37 -62 40 -74 13 -39 35 -52 90 -52 29 0 55 3 58 6 3 3 -21 53 -53 111
-32 58 -59 108 -59 110 0 3 7 0 15 -7 8 -7 15 -17 15 -22 0 -6 25 -52 55 -104
l56 -94 44 0 c32 0 45 4 45 14 0 15 -48 117 -59 126 -4 3 -14 17 -23 31 -23
37 -109 89 -154 94 -22 3 -50 7 -64 9 -14 2 -41 1 -60 -3z"/>
<path  d="M1230 823 c0 -148 3 -278 6 -290 6 -23 8 -23 180 -23 141 0 174 3
174 14 0 7 3 27 6 44 l6 31 -133 3 -134 3 -3 243 -2 242 -50 0 -50 0 0 -267z"/>
<path d="M2314 1084 c-31 -5 -31 -6 -38 -72 -3 -37 -6 -162 -6 -279 0 -204 1
-213 20 -223 12 -6 33 -10 48 -8 l27 3 3 113 3 112 53 0 53 0 73 -110 73 -110
48 0 c28 0 49 5 49 10 0 6 -30 56 -67 112 -61 93 -65 101 -47 111 10 6 37 27
59 48 l40 38 0 78 c0 66 -4 83 -23 111 -39 53 -69 63 -210 67 -70 2 -141 1
-158 -1z m283 -119 c29 -33 29 -77 1 -109 -21 -23 -31 -25 -125 -28 l-103 -4
0 83 0 82 38 4 c20 3 66 3 102 2 55 -3 68 -7 87 -30z"/>
<path fill="#3e3f44" d="M705 1073 c-47 -12 -47 -23 4 -113 4 -8 22 -45 40 -82 l31 -68 50 0
c54 0 61 9 35 48 -9 12 -29 48 -46 79 -17 32 -35 61 -41 64 -6 4 -16 22 -22
40 -12 35 -19 39 -51 32z"/>
<path d="M1854 1033 c-10 -27 -40 -104 -67 -173 -48 -125 -127 -338 -127 -346
0 -2 22 -4 49 -4 l48 0 25 68 25 67 118 0 118 0 26 -67 26 -68 48 0 c47 0 47
0 41 28 -4 15 -24 70 -45 122 -20 52 -48 124 -62 160 -14 36 -42 109 -63 163
l-37 97 -53 0 -52 0 -18 -47z m115 -194 c17 -44 31 -83 31 -85 0 -2 -31 -4
-70 -4 -53 0 -70 3 -70 14 0 13 46 141 56 158 10 16 23 -4 53 -83z"/>
<path fill="#3e3f44" d="M620 1012 c0 -7 -6 -12 -13 -12 -7 0 -18 -5 -25 -12 -18 -18 5 -38
44 -38 39 0 44 16 14 50 -11 13 -20 18 -20 12z"/>
<path d="M543 928 c-6 -7 -13 -24 -16 -38 -3 -14 -9 -35 -12 -47 -7 -22 -5
-23 49 -23 31 0 56 3 56 6 0 3 -7 18 -15 32 -8 15 -19 39 -25 55 -10 29 -22
34 -37 15z"/>
<path fill="#3e3f44" d="M590 933 c0 -5 6 -20 14 -34 7 -14 16 -37 20 -52 6 -25 11 -27 56
-27 49 0 49 0 38 25 -6 14 -15 25 -20 25 -4 0 -8 9 -8 19 0 41 -11 51 -56 51
-24 0 -44 -3 -44 -7z"/>
<path fill="#396ba0"  d="M512 758 c3 -20 10 -23 51 -26 26 -2 47 1 47 7 0 5 3 16 6 25 5 13
-3 16 -51 16 -53 0 -56 -1 -53 -22z"/>
<path fill="#396ba0"  d="M628 755 c-5 -24 -3 -25 38 -25 32 0 46 5 53 19 9 15 7 20 -12 25
-49 13 -74 7 -79 -19z"/>
<path fill="#396ba0"  d="M778 759 c-10 -5 -18 -19 -18 -29 0 -17 7 -20 48 -20 43 0 50 3 60
25 7 14 12 28 12 30 0 9 -85 4 -102 -6z"/>
<path fill="#396ba0" d="M892 750 c-6 -11 -12 -22 -12 -25 0 -3 29 -5 63 -5 58 0 65 2 75 25
l12 25 -63 0 c-51 0 -64 -3 -75 -20z"/>
<path fill="#396ba0" d="M1032 745 c-12 -25 -12 -25 42 -25 40 0 55 4 60 16 11 30 6 34 -42
34 -42 0 -50 -3 -60 -25z"/>
<path fill="#396ba0" d="M526 711 c-9 -14 4 -39 22 -43 32 -7 52 4 52 28 0 21 -5 24 -34 24
-19 0 -37 -4 -40 -9z"/>
<path fill="#396ba0" d="M620 711 c0 -5 -3 -17 -6 -26 -6 -14 0 -16 37 -13 37 2 45 7 47 26 3
20 -1 22 -37 22 -23 0 -41 -4 -41 -9z"/>
<path fill="#396ba0" d="M1004 678 l-15 -28 54 0 c48 0 55 3 65 25 17 37 17 36 -39 33 -44 -3
-53 -7 -65 -30z"/>
<path fill="#396ba0" d="M742 675 c-17 -36 -17 -35 36 -35 43 0 50 3 60 25 17 36 17 35 -36
35 -43 0 -50 -3 -60 -25z"/>
<path fill="#396ba0" d="M862 675 c-7 -14 -12 -28 -12 -31 0 -12 116 10 128 24 21 27 14 32
-46 32 -53 0 -60 -2 -70 -25z"/>
<path fill="#396ba0" d="M562 630 c7 -11 16 -20 20 -20 5 0 8 9 8 20 0 13 -7 20 -20 20 -18 0
-19 -2 -8 -20z"/>
<path fill="#396ba0" d="M610 625 c0 -20 5 -25 25 -25 14 0 29 8 35 19 15 29 13 31 -25 31
-31 0 -35 -3 -35 -25z"/>
<path fill="#396ba0" d="M722 618 c-5 -7 -13 -24 -17 -37 -6 -20 -4 -23 10 -18 9 4 31 7 49 7
25 0 35 6 44 25 7 14 12 28 12 30 0 11 -88 4 -98 -7z"/>
<path fill="#396ba0" d="M832 605 c-7 -14 -12 -28 -12 -30 0 -3 26 -5 58 -5 53 0 60 2 70 25
7 14 12 28 12 30 0 3 -26 5 -58 5 -53 0 -60 -2 -70 -25z"/>
<path fill="#396ba0" d="M972 605 c-7 -14 -12 -28 -12 -31 0 -11 86 9 103 24 28 24 20 32 -31
32 -43 0 -50 -3 -60 -25z"/>
<path fill="#396ba0" d="M610 582 c0 -4 9 -13 20 -19 20 -13 37 -2 25 17 -7 12 -45 14 -45 2z"/>
<path fill="#396ba0" d="M723 553 c-18 -2 -33 -9 -33 -14 0 -6 15 -16 33 -24 29 -13 33 -13
50 7 9 11 17 24 17 29 0 9 -7 9 -67 2z"/>
<path fill="#396ba0" d="M800 534 c-6 -14 -10 -27 -10 -30 0 -2 24 -4 54 -4 45 0 58 4 70 22
9 12 16 26 16 30 0 5 -27 8 -60 8 -56 0 -61 -2 -70 -26z"/>
<path fill="#396ba0" d="M946 544 c-4 -9 -5 -19 -2 -21 7 -7 55 9 67 23 9 12 5 14 -24 14 -23
0 -37 -6 -41 -16z"/>
<path d="M127 317 c-43 -10 -102 -73 -112 -117 -15 -70 40 -160 110 -179 70
-19 145 25 165 98 5 20 10 39 10 44 0 4 -32 7 -71 7 -44 0 -68 -4 -64 -10 3
-5 28 -10 56 -10 43 0 49 -3 49 -21 0 -30 -51 -76 -92 -84 -93 -18 -169 95
-124 183 25 48 53 65 106 66 40 1 54 -4 77 -26 38 -36 62 -37 34 -2 -37 48
-87 65 -144 51z"/>
<path d="M403 314 c-23 -5 -23 -8 -23 -150 0 -84 4 -144 10 -144 5 0 10 28 12
63 3 60 4 62 32 65 51 6 73 -6 110 -62 20 -31 41 -58 47 -62 24 -15 18 8 -17
60 l-37 57 31 30 c37 36 43 84 14 119 -15 19 -30 23 -88 25 -38 2 -79 1 -91
-1z m163 -39 c19 -26 17 -59 -5 -79 -15 -13 -34 -16 -87 -14 l-69 3 -1 50 c0
28 1 54 4 59 2 4 36 6 74 4 54 -3 73 -8 84 -23z"/>
<path d="M697 313 c-4 -3 -7 -71 -7 -150 l0 -143 105 0 c63 0 105 4 105 10 0
6 -33 10 -77 11 -94 2 -97 2 -100 12 -2 4 -3 30 -3 57 l0 50 58 0 c98 0 117
14 27 20 l-80 5 -3 58 c-2 31 1 57 5 56 4 -1 46 -1 93 0 59 1 80 4 70 11 -17
11 -183 14 -193 3z"/>
<path d="M990 253 c-1 -38 -3 -85 -6 -107 -3 -21 -3 -58 1 -82 l6 -44 100 0
c59 0 99 4 99 10 0 6 -36 10 -88 10 -49 0 -91 2 -93 4 -2 2 -2 29 -1 60 l4 56
79 0 c46 0 79 4 79 10 0 6 -33 10 -80 10 l-80 0 0 61 c0 40 4 58 11 54 15 -10
169 5 169 16 0 5 -45 9 -100 9 l-100 0 0 -67z"/>
<path d="M1276 305 c-10 -28 -7 -273 4 -280 8 -5 16 134 13 223 -1 26 18 9 63
-55 87 -125 125 -173 134 -173 6 0 10 61 10 153 0 102 -4 147 -10 137 -5 -8
-10 -63 -10 -122 0 -60 -3 -108 -7 -108 -5 0 -41 47 -82 105 -41 57 -82 112
-91 120 -16 14 -18 14 -24 0z"/>
<path d="M1629 313 c-26 -4 -27 -5 -33 -112 -4 -59 -4 -124 -1 -144 l7 -37 99
0 c59 0 99 4 99 10 0 6 -32 11 -75 11 -41 1 -81 2 -87 3 -9 1 -14 22 -16 58
l-3 58 80 0 c44 0 83 5 86 10 4 6 3 10 -2 9 -4 -1 -43 -1 -86 0 l-78 1 3 58 3
57 88 3 c48 1 87 7 87 12 0 10 -116 11 -171 3z"/>
<path d="M1891 168 c1 -147 2 -151 13 -88 l11 65 47 3 c39 3 49 -1 63 -20 8
-13 30 -43 47 -68 41 -59 49 -34 9 29 -36 56 -38 67 -12 76 28 9 46 59 35 98
-13 43 -45 57 -136 57 l-78 0 1 -152z m162 123 c32 -12 43 -55 22 -87 -14 -22
-22 -24 -90 -24 l-75 0 0 60 0 60 59 0 c33 0 71 -4 84 -9z"/>
<path d="M2252 300 c-66 -40 -90 -151 -47 -216 57 -88 195 -83 238 9 28 59 23
74 -27 81 -48 8 -99 -1 -90 -15 3 -5 27 -9 54 -9 27 0 52 -4 55 -10 11 -18
-29 -71 -64 -86 -46 -19 -68 -18 -107 7 -43 26 -56 50 -56 103 -2 116 113 174
194 98 28 -26 45 -25 35 3 -10 25 -70 55 -112 55 -23 0 -54 -9 -73 -20z"/>
<path d="M2500 312 c0 -5 25 -47 55 -92 51 -77 55 -87 55 -141 0 -33 4 -59 10
-59 6 0 10 27 10 61 0 57 3 67 50 136 28 40 54 81 57 91 10 28 -40 -22 -78
-79 -19 -27 -37 -49 -40 -49 -3 0 -27 29 -53 65 -48 65 -66 84 -66 67z"/>
</g>
</svg>
