<?xml version="1.0" standalone="no"?>
<!DOCTYPE svg PUBLIC "-//W3C//DTD SVG 20010904//EN"
 "http://www.w3.org/TR/2001/REC-SVG-20010904/DTD/svg10.dtd">
<svg version="1.0" xmlns="http://www.w3.org/2000/svg"
 width="100.000000pt" height="28.000000pt" viewBox="0 0 2362.000000 744.000000"
 preserveAspectRatio="xMidYMid meet">

<g transform="translate(0.000000,744.000000) scale(0.100000,-0.100000)"
fill="#4b5926" stroke="none">
<path d="M15803 7343 c-33 -54 -133 -219 -223 -368 -183 -302 -472 -775 -590
-965 -83 -134 -309 -500 -395 -640 -416 -681 -1146 -1827 -1175 -1845 -18 -11
-101 76 -172 180 -34 50 -87 122 -117 162 l-56 72 -700 3 -700 3 -3 1715 -2
1715 -438 -2 c-240 -1 -555 -5 -699 -9 l-263 -6 0 -2199 0 -2199 2115 0 2115
0 13 23 c8 12 52 85 97 162 115 195 235 381 518 810 461 696 594 905 689 1083
30 56 59 102 65 102 19 0 65 -39 90 -77 14 -21 77 -121 140 -223 162 -261 388
-624 474 -763 41 -64 74 -122 74 -127 0 -7 -251 -10 -713 -10 -393 0 -716 -3
-720 -6 -17 -18 100 -194 365 -552 104 -141 215 -295 246 -341 l56 -84 2025 6
c1113 4 2025 8 2027 10 4 5 14 458 14 691 0 204 2 247 14 243 7 -3 51 -32 97
-65 46 -32 190 -132 319 -222 129 -90 307 -213 395 -275 88 -61 359 -250 601
-418 l442 -307 878 0 879 1 -55 50 c-30 28 -122 95 -205 150 -305 200 -986
675 -1264 882 -95 71 -204 150 -242 175 -37 26 -67 47 -66 49 1 1 79 14 172
28 399 62 616 126 774 228 196 127 305 294 375 577 43 169 51 239 51 425 0
189 -7 240 -52 380 -142 447 -562 718 -1235 800 -250 30 -469 34 -1723 37
-1816 3 -2245 -1 -2245 -21 0 -15 103 -177 178 -280 42 -58 151 -205 242 -326
91 -121 185 -251 210 -287 25 -37 54 -71 65 -75 11 -5 659 -7 1440 -6 873 2
1443 -1 1480 -7 33 -5 85 -22 115 -37 46 -24 59 -37 83 -82 59 -118 24 -255
-78 -309 -89 -46 -87 -46 -887 -49 l-758 -4 0 79 c0 89 -11 132 -40 150 -47
29 -169 34 -605 23 -236 -6 -505 -11 -597 -11 l-168 0 -2 -627 c-1 -346 -2
-635 -4 -643 -1 -8 -3 -148 -3 -310 l-2 -295 -30 35 c-68 77 -312 461 -659
1035 -73 121 -171 283 -218 360 -47 77 -122 200 -166 273 -45 73 -137 221
-206 330 -69 108 -182 289 -250 402 -652 1081 -917 1501 -1045 1663 -36 46
-51 57 -74 57 -26 0 -35 -10 -88 -97z"/>
<path  fill="#f18d35" d="M7200 7310 c-500 -41 -971 -240 -1289 -545 -302 -288 -534 -730 -611
-1162 -35 -197 -30 -484 11 -686 19 -96 62 -245 81 -280 9 -18 23 -7 515 430
252 225 295 255 990 679 749 457 1043 656 1300 876 112 96 214 206 244 263 23
42 23 42 3 67 -88 111 -293 228 -519 293 -199 58 -497 85 -725 65z"/>
<path fill="#82bd4c" d="M8580 6805 c-147 -143 -255 -432 -323 -865 -16 -105 -21 -183 -21
-355 -1 -247 8 -310 86 -575 98 -337 262 -642 388 -726 38 -25 41 -26 59 -10
32 29 79 147 100 251 41 206 37 449 -14 845 -14 107 -27 222 -30 255 l-5 60
65 -130 c73 -145 133 -317 165 -475 30 -146 24 -358 -14 -505 -32 -122 -169
-526 -176 -519 -2 3 -7 29 -10 57 l-5 52 -64 -2 c-54 -1 -71 -7 -105 -31 -23
-17 -41 -35 -40 -41 1 -6 2 -61 3 -123 1 -130 -1 -130 91 -4 30 42 58 76 63
76 15 0 6 -72 -13 -110 -31 -61 -158 -208 -250 -289 -323 -285 -777 -435
-1260 -418 -302 11 -575 81 -901 230 -42 19 -79 39 -83 45 -3 5 6 17 19 26 25
17 29 15 158 -48 135 -67 250 -109 330 -121 l45 -7 8 89 c13 148 11 511 -4
575 -17 73 -47 118 -97 143 -36 17 -59 19 -255 17 -291 -3 -334 -17 -376 -117
-18 -43 -23 -208 -9 -322 l7 -60 93 -49 c85 -45 91 -50 74 -62 -12 -8 -31 -11
-49 -7 -39 8 -190 116 -312 221 -192 166 -303 310 -448 578 -142 264 -190 319
-176 201 51 -437 534 -1034 1111 -1373 156 -92 465 -194 690 -229 151 -23 461
-23 610 0 540 84 1026 374 1371 817 220 283 364 613 431 990 23 127 26 173 26
375 1 211 -1 240 -25 350 -59 272 -157 447 -432 774 -180 214 -203 245 -268
376 -69 136 -121 220 -144 229 -11 4 -39 -16 -84 -59z"/>
<path  d="M2425 6403 c-515 -7 -1009 -24 -1124 -38 -267 -33 -537 -102 -696
-180 -291 -142 -445 -323 -523 -614 -22 -84 -25 -116 -26 -261 0 -146 3 -177
26 -271 31 -122 88 -262 137 -332 70 -103 209 -220 337 -285 136 -69 383 -149
543 -176 276 -47 515 -58 1276 -60 677 -2 680 -2 748 -25 54 -18 70 -27 78
-49 15 -39 4 -104 -20 -124 -54 -43 -49 -43 -1608 -43 -815 0 -1485 -4 -1489
-8 -15 -15 60 -137 211 -340 260 -352 341 -463 396 -550 l54 -85 165 -8 c91
-5 561 -9 1045 -9 1099 0 1342 12 1669 81 539 114 864 367 966 750 82 312 61
597 -61 800 -80 134 -262 287 -435 365 -115 52 -326 117 -482 149 -323 64
-618 81 -1377 79 -450 -1 -611 1 -645 11 -54 15 -120 76 -120 113 0 35 58 83
128 104 53 16 105 17 677 13 838 -7 1879 -3 1939 7 32 5 50 13 51 23 2 9 4
225 6 480 l4 465 -65 8 c-68 8 -1419 16 -1785 10z"/>
<path  fill="#3a3e72" d="M8037 6236 c-26 -7 -62 -24 -80 -37 -17 -13 -62 -46 -100 -74 l-67
-50 0 -361 0 -361 58 -17 c63 -20 240 -32 296 -22 l36 7 0 87 c0 166 37 618
67 805 l6 37 -84 -1 c-46 0 -105 -6 -132 -13z"/>
<path  fill="#3a3e72" d="M7585 5926 c-49 -29 -157 -92 -240 -141 -82 -49 -204 -120 -270 -158
-66 -38 -123 -72 -127 -76 -10 -9 38 -203 53 -212 37 -22 294 -52 386 -44 197
16 284 81 296 220 3 33 2 151 -1 261 l-7 202 -90 -52z"/>
<path fill="#3a3e72" d="M6432 5206 c-63 -16 -131 -57 -248 -150 l-86 -69 5 -276 c5 -273 17
-380 48 -417 19 -23 151 -38 324 -37 140 0 184 4 250 22 44 12 85 27 92 34 27
28 43 481 25 704 -6 73 -11 86 -37 113 -56 60 -118 83 -225 87 -56 1 -117 -3
-148 -11z"/>
<path  fill="#3a3e72" d="M7892 5190 c-35 -9 -67 -22 -72 -26 -45 -46 -59 -706 -17 -806 31
-73 126 -108 297 -108 123 0 271 23 350 53 51 21 55 24 58 58 4 50 -27 137
-107 298 -39 79 -90 203 -121 296 -29 88 -59 172 -66 186 -7 15 -33 36 -57 48
-55 27 -174 27 -265 1z"/>
<path fill="#3a3e72" d="M7060 5160 c0 -17 -5 -19 -25 -14 -19 5 -25 2 -25 -10 0 -9 -7 -16
-15 -16 -12 0 -15 -13 -15 -57 0 -32 -3 -188 -5 -348 -6 -411 -7 -398 13 -414
14 -11 72 -12 317 -7 165 3 310 9 321 12 32 8 36 53 28 343 -3 141 -7 310 -8
376 l-1 120 -32 0 c-25 0 -33 4 -33 17 0 17 -19 18 -260 18 -254 0 -260 0
-260 -20z"/>
<path fill="#3a3e72" d="M5905 4833 c-172 -143 -320 -306 -374 -412 l-19 -37 34 -54 c19 -30
41 -58 50 -63 9 -5 76 -7 148 -5 104 4 142 10 186 27 30 13 61 27 67 33 10 8
13 76 12 282 0 149 -3 278 -7 288 -6 13 -23 3 -97 -59z"/>
<path  fill="#3a3e72" d="M7215 4184 c-115 -12 -205 -27 -218 -37 -21 -17 -45 -97 -58 -196
-12 -91 -6 -523 8 -595 7 -34 13 -41 48 -53 98 -34 215 -45 405 -39 164 5 262
15 275 28 2 2 7 170 11 373 6 325 5 374 -9 400 -25 48 -68 82 -127 100 -54 16
-253 27 -335 19z"/>
<path  fill="#3a3e72" d="M7945 4174 c-11 -3 -30 -7 -42 -10 -13 -2 -38 -18 -58 -35 -67 -59
-82 -172 -70 -552 l7 -247 35 0 c129 0 324 91 554 259 l156 114 7 133 c12 212
-6 268 -99 314 -47 23 -59 24 -260 27 -115 1 -219 0 -230 -3z"/>
<path fill="#3a3e72" d="M5676 4159 c31 -53 146 -213 183 -257 43 -51 105 -101 143 -115 19
-7 19 25 2 251 l-6 74 -56 26 c-48 22 -75 27 -166 30 -90 4 -107 2 -100 -9z"/>
<path  fill="#373435" d="M4880 2169 c-284 -23 -492 -154 -608 -384 -176 -349 -121 -809 125
-1048 157 -153 372 -226 632 -214 217 9 418 86 604 231 15 12 17 39 17 310 l0
296 -340 0 -341 0 3 -92 3 -93 233 -3 232 -2 0 -150 0 -150 -44 -31 c-58 -41
-176 -94 -256 -115 -85 -23 -243 -22 -330 0 -279 74 -421 282 -421 621 0 173
36 310 112 425 102 152 252 223 469 222 228 -1 372 -91 442 -279 12 -32 23
-59 24 -61 3 -5 168 41 178 50 22 18 -44 171 -112 260 -112 148 -353 228 -622
207z"/>
<path  fill="#373435" d="M6626 1716 c-47 -18 -96 -64 -139 -131 l-32 -50 -3 88 -3 87 -84 0
-85 0 0 -585 0 -585 94 0 94 0 5 373 c4 313 7 382 21 432 23 79 50 121 99 153
34 23 51 27 107 26 40 -1 78 -8 99 -18 18 -10 34 -16 36 -14 8 7 65 160 65
172 0 21 -98 57 -170 62 -43 3 -78 -1 -104 -10z"/>
<path  fill="#373435" d="M7696 1714 c-140 -34 -269 -138 -330 -267 -45 -93 -66 -201 -66 -332
0 -199 49 -335 159 -446 102 -102 226 -149 391 -148 226 0 401 107 479 292 16
40 28 73 26 75 -4 4 -199 32 -200 29 -57 -150 -146 -225 -276 -235 -88 -6
-152 11 -218 57 -91 62 -144 159 -158 289 l-6 52 432 0 431 0 0 88 c0 334
-217 564 -530 561 -41 0 -101 -7 -134 -15z m277 -173 c65 -31 102 -64 132
-116 25 -42 59 -171 49 -187 -3 -4 -149 -8 -325 -8 l-319 0 0 23 c0 32 28 125
48 156 42 69 116 128 192 152 50 16 172 5 223 -20z"/>
<path  fill="#373435" d="M9305 1720 c-196 -41 -339 -179 -396 -383 -30 -106 -33 -315 -6 -417
71 -267 279 -414 566 -397 172 9 294 68 383 184 43 58 95 169 83 181 -4 5
-189 33 -191 29 -1 -1 -16 -30 -34 -65 -60 -114 -154 -172 -281 -172 -181 0
-327 150 -341 350 l-3 45 434 3 434 2 -6 98 c-4 53 -13 124 -22 157 -52 203
-201 350 -389 384 -68 12 -172 13 -231 1z m232 -171 c85 -32 155 -106 182
-194 12 -37 21 -80 21 -96 l0 -29 -319 0 c-176 0 -322 3 -325 8 -8 13 14 105
36 151 31 64 107 135 170 160 71 27 161 27 235 0z"/>
<path  fill="#373435" d="M10955 1716 c-74 -18 -151 -64 -201 -119 l-43 -48 -3 78 -3 78 -87 3
-88 3 0 -586 0 -586 98 3 97 3 5 395 c6 448 7 455 88 536 136 137 390 101 443
-63 9 -27 14 -159 16 -455 l4 -418 95 0 94 0 0 438 c0 460 -3 489 -47 577 -42
80 -117 134 -223 159 -77 18 -175 19 -245 2z"/>
<path  fill="#373435" d="M12465 1719 c-137 -28 -279 -138 -340 -263 -46 -94 -65 -170 -72
-291 -19 -342 147 -588 430 -636 96 -16 235 -7 317 21 74 25 174 92 213 143
27 36 80 137 91 174 8 25 0 29 -94 38 -36 4 -73 9 -82 11 -12 4 -22 -8 -38
-42 -53 -120 -143 -184 -270 -192 -177 -10 -315 105 -356 297 -7 36 -14 74
-14 84 0 16 27 17 437 17 l436 0 -6 98 c-7 102 -35 218 -67 281 -54 107 -156
197 -269 239 -76 28 -232 38 -316 21z m242 -171 c109 -40 182 -140 199 -271
l7 -47 -324 2 -324 3 4 40 c10 116 96 232 201 273 74 28 162 28 237 0z"/>
<path  fill="#373435" d="M14055 1719 c-50 -19 -93 -57 -137 -122 l-43 -62 -3 88 -3 87 -84 0
-85 0 0 -585 0 -585 94 0 94 0 5 368 c5 384 11 435 55 520 10 20 38 51 61 67
38 26 51 30 109 29 43 0 79 -7 100 -18 19 -10 36 -15 38 -13 3 3 20 44 39 92
l34 86 -57 26 c-64 29 -169 39 -217 22z"/>
<path  fill="#373435" d="M15083 1715 c-140 -39 -236 -121 -301 -256 -160 -332 -41 -774 236
-879 171 -65 351 -36 471 74 l44 41 -5 -125 c-4 -96 -9 -136 -25 -171 -24 -54
-76 -109 -125 -132 -84 -40 -250 -41 -332 -2 -48 23 -93 76 -101 119 -7 34 -7
34 -81 45 -114 17 -114 17 -114 -26 0 -109 72 -217 182 -271 87 -43 145 -54
273 -55 271 -1 443 113 501 334 15 56 18 142 21 682 l4 617 -90 0 -91 0 0 -71
0 -72 -50 47 c-28 26 -80 61 -116 78 -56 26 -81 31 -158 34 -60 3 -109 -1
-143 -11z m224 -160 c177 -53 270 -261 233 -525 -28 -207 -142 -320 -319 -320
-153 0 -266 108 -301 287 -19 94 -8 284 19 354 41 108 100 168 196 201 62 22
107 22 172 3z"/>
<path  fill="#373435" d="M16263 1693 c2 -10 102 -274 220 -587 l216 -568 -35 -90 c-43 -113
-63 -141 -120 -169 -40 -19 -56 -21 -126 -16 l-80 7 6 -58 c15 -127 10 -119
81 -131 163 -29 277 41 363 222 35 74 150 376 436 1147 l94 255 -91 3 c-49 1
-94 -1 -99 -6 -16 -16 -270 -722 -326 -907 -9 -29 -9 -29 -26 30 -17 62 -125
370 -244 695 l-67 185 -104 3 c-95 3 -103 1 -98 -15z"/>
</g>
</svg>
