<svg width="52" height="9" viewBox="0 0 52 9" fill="none" xmlns="http://www.w3.org/2000/svg">
<g clip-path="url(#clip0_220_5568)">
<path d="M5.24305 1.08229C5.16411 0.921001 4.99727 0.818359 4.81405 0.818359C4.63083 0.818359 4.46549 0.921001 4.38505 1.08229L3.42725 3.02222L1.28821 3.33308C1.10946 3.35947 0.960501 3.48264 0.905387 3.65127C0.850272 3.81989 0.89496 4.00611 1.02306 4.13075L2.57521 5.64251L2.20877 7.77893C2.17898 7.95488 2.25346 8.13377 2.40093 8.23788C2.5484 8.34199 2.74353 8.35519 2.90441 8.27161L4.81554 7.26718L6.72668 8.27161C6.88755 8.35519 7.08269 8.34346 7.23016 8.23788C7.37763 8.13231 7.45211 7.95488 7.42231 7.77893L7.05439 5.64251L8.60653 4.13075C8.73464 4.00611 8.78081 3.81989 8.72421 3.65127C8.6676 3.48264 8.52014 3.35947 8.34139 3.33308L6.20086 3.02222L5.24305 1.08229Z" fill="black"/>
</g>
<g clip-path="url(#clip1_220_5568)">
<path d="M15.9664 1.08229C15.8875 0.921001 15.7207 0.818359 15.5374 0.818359C15.3542 0.818359 15.1889 0.921001 15.1084 1.08229L14.1506 3.02222L12.0116 3.33308C11.8328 3.35947 11.6839 3.48264 11.6288 3.65127C11.5737 3.81989 11.6183 4.00611 11.7465 4.13075L13.2986 5.64251L12.9322 7.77893C12.9024 7.95488 12.9768 8.13377 13.1243 8.23788C13.2718 8.34199 13.4669 8.35519 13.6278 8.27161L15.5389 7.26718L17.4501 8.27161C17.6109 8.35519 17.8061 8.34346 17.9535 8.23788C18.101 8.13231 18.1755 7.95488 18.1457 7.77893L17.7778 5.64251L19.3299 4.13075C19.458 4.00611 19.5042 3.81989 19.4476 3.65127C19.391 3.48264 19.2435 3.35947 19.0648 3.33308L16.9242 3.02222L15.9664 1.08229Z" fill="black"/>
</g>
<g clip-path="url(#clip2_220_5568)">
<path d="M26.6919 1.08229C26.613 0.921001 26.4461 0.818359 26.2629 0.818359C26.0797 0.818359 25.9143 0.921001 25.8339 1.08229L24.8761 3.02222L22.7371 3.33308C22.5583 3.35947 22.4094 3.48264 22.3542 3.65127C22.2991 3.81989 22.3438 4.00611 22.4719 4.13075L24.0241 5.64251L23.6576 7.77893C23.6278 7.95488 23.7023 8.13377 23.8498 8.23788C23.9972 8.34199 24.1924 8.35519 24.3533 8.27161L26.2644 7.26718L28.1755 8.27161C28.3364 8.35519 28.5315 8.34346 28.679 8.23788C28.8265 8.13231 28.901 7.95488 28.8712 7.77893L28.5032 5.64251L30.0554 4.13075C30.1835 4.00611 30.2297 3.81989 30.1731 3.65127C30.1165 3.48264 29.969 3.35947 29.7902 3.33308L27.6497 3.02222L26.6919 1.08229Z" fill="black"/>
</g>
<g clip-path="url(#clip3_220_5568)">
<path d="M37.4172 1.08229C37.3383 0.921001 37.1715 0.818359 36.9882 0.818359C36.805 0.818359 36.6397 0.921001 36.5592 1.08229L35.6014 3.02222L33.4624 3.33308C33.2837 3.35947 33.1347 3.48264 33.0796 3.65127C33.0245 3.81989 33.0692 4.00611 33.1973 4.13075L34.7494 5.64251L34.383 7.77893C34.3532 7.95488 34.4277 8.13377 34.5751 8.23788C34.7226 8.34199 34.9177 8.35519 35.0786 8.27161L36.9897 7.26718L38.9009 8.27161C39.0617 8.35519 39.2569 8.34346 39.4044 8.23788C39.5518 8.13231 39.6263 7.95488 39.5965 7.77893L39.2286 5.64251L40.7807 4.13075C40.9088 4.00611 40.955 3.81989 40.8984 3.65127C40.8418 3.48264 40.6943 3.35947 40.5156 3.33308L38.3751 3.02222L37.4172 1.08229Z" fill="black"/>
</g>
<g clip-path="url(#clip4_220_5568)">
<path d="M48.1426 1.08229C48.0636 0.921001 47.8968 0.818359 47.7136 0.818359C47.5304 0.818359 47.365 0.921001 47.2846 1.08229L46.3268 3.02222L44.1877 3.33308C44.009 3.35947 43.86 3.48264 43.8049 3.65127C43.7498 3.81989 43.7945 4.00611 43.9226 4.13075L45.4747 5.64251L45.1083 7.77893C45.0785 7.95488 45.153 8.13377 45.3005 8.23788C45.4479 8.34199 45.6431 8.35519 45.8039 8.27161L47.7151 7.26718L49.6262 8.27161C49.7871 8.35519 49.9822 8.34346 50.1297 8.23788C50.2772 8.13231 50.3516 7.95488 50.3218 7.77893L49.9539 5.64251L51.5061 4.13075C51.6342 4.00611 51.6803 3.81989 51.6237 3.65127C51.5671 3.48264 51.4197 3.35947 51.2409 3.33308L49.1004 3.02222L48.1426 1.08229Z" fill="black"/>
</g>
<defs>
<clipPath id="clip0_220_5568">
<rect width="8.58" height="7.5075" fill="white" transform="translate(0.521484 0.818359)"/>
</clipPath>
<clipPath id="clip1_220_5568">
<rect width="8.58" height="7.5075" fill="white" transform="translate(11.2465 0.818359)"/>
</clipPath>
<clipPath id="clip2_220_5568">
<rect width="8.58" height="7.5075" fill="white" transform="translate(21.9714 0.818359)"/>
</clipPath>
<clipPath id="clip3_220_5568">
<rect width="8.58" height="7.5075" fill="white" transform="translate(32.6964 0.818359)"/>
</clipPath>
<clipPath id="clip4_220_5568">
<rect width="8.58" height="7.5075" fill="white" transform="translate(43.4214 0.818359)"/>
</clipPath>
</defs>
</svg>
